<svg width="597" height="266" viewBox="0 0 597 266" fill="none" xmlns="http://www.w3.org/2000/svg">
<g clip-path="url(#clip0_3286_3881)">
<g opacity="0.5">
<path fill-rule="evenodd" clip-rule="evenodd" d="M513.957 209.595C533.353 190.289 543.999 164.644 543.999 137.375C543.999 110.105 533.321 84.4603 513.957 65.1538C473.957 25.3381 408.846 25.3381 368.845 65.1538L273.726 159.866L260.416 173.114L244.36 158.397L212.398 126.582C191.891 106.17 164.822 95.8994 137.949 95.8994L138.014 95.9319C112.381 95.9319 86.8781 105.26 67.3513 124.014C47.3673 143.223 36.2322 168.998 36.0036 196.625C35.775 224.252 46.4207 250.222 66.0455 269.756L166.455 369.701C217.917 420.926 301.639 420.926 353.101 369.701L353.509 369.296L353.815 369.393L381.269 341.474L422.682 300.99L422.405 300.776L513.957 209.595Z" fill="url(#paint0_linear_3286_3881)"/>
<path d="M513.957 209.595L513.618 209.255L513.618 209.255L513.957 209.595ZM513.957 65.1538L514.296 64.8137L514.296 64.8134L513.957 65.1538ZM368.845 65.1538L368.506 64.8134L368.506 64.8135L368.845 65.1538ZM273.726 159.866L274.065 160.207L274.065 160.207L273.726 159.866ZM260.416 173.114L260.091 173.468L260.43 173.778L260.755 173.455L260.416 173.114ZM244.36 158.397L244.022 158.737L244.029 158.744L244.036 158.751L244.36 158.397ZM212.398 126.582L212.059 126.922L212.398 126.582ZM137.949 95.8994V95.4192L137.735 96.3293L137.949 95.8994ZM138.014 95.9319V96.4121L138.228 95.502L138.014 95.9319ZM67.3513 124.014L67.0186 123.668L67.0185 123.668L67.3513 124.014ZM36.0036 196.625L36.4838 196.629L36.0036 196.625ZM66.0455 269.756L66.3842 269.415L66.0455 269.756ZM166.455 369.701L166.794 369.361L166.455 369.701ZM353.101 369.701L352.763 369.361L353.101 369.701ZM353.509 369.296L353.654 368.838L353.376 368.75L353.17 368.956L353.509 369.296ZM353.815 369.393L353.669 369.851L353.95 369.94L354.157 369.73L353.815 369.393ZM381.269 341.474L380.933 341.13L380.926 341.137L381.269 341.474ZM422.682 300.99L423.018 301.334L423.413 300.948L422.976 300.61L422.682 300.99ZM422.405 300.776L422.066 300.436L421.679 300.822L422.112 301.157L422.405 300.776ZM543.519 137.375C543.519 164.516 532.924 190.038 513.618 209.255L514.296 209.936C533.783 190.539 544.479 164.772 544.479 137.375H543.519ZM513.618 65.4938C532.892 84.7107 543.519 110.233 543.519 137.375H544.479C544.479 109.977 533.75 84.2099 514.296 64.8137L513.618 65.4938ZM369.184 65.4941C408.997 25.8649 473.805 25.8649 513.618 65.4941L514.296 64.8134C474.108 24.8112 408.694 24.8112 368.506 64.8134L369.184 65.4941ZM274.065 160.207L369.184 65.4941L368.506 64.8135L273.387 159.526L274.065 160.207ZM260.755 173.455L274.065 160.207L273.387 159.526L260.077 172.774L260.755 173.455ZM260.74 172.76L244.685 158.043L244.036 158.751L260.091 173.468L260.74 172.76ZM212.059 126.922L244.022 158.737L244.699 158.056L212.737 126.242L212.059 126.922ZM137.949 96.3796C164.701 96.3796 191.647 106.604 212.059 126.922L212.737 126.242C192.136 105.737 164.944 95.4192 137.949 95.4192V96.3796ZM138.228 95.502L138.163 95.4695L137.735 96.3293L137.8 96.3618L138.228 95.502ZM67.6839 124.361C87.1156 105.698 112.497 96.4121 138.014 96.4121V95.4517C112.265 95.4517 86.6406 104.822 67.0186 123.668L67.6839 124.361ZM36.4838 196.629C36.7113 169.132 47.7929 143.48 67.6841 124.36L67.0185 123.668C46.9418 142.966 35.753 168.864 35.5234 196.621L36.4838 196.629ZM66.3842 269.415C46.8511 249.973 36.2563 224.127 36.4838 196.629L35.5234 196.621C35.2938 224.377 45.9903 250.471 65.7067 270.096L66.3842 269.415ZM166.794 369.361L66.3842 269.415L65.7067 270.096L166.116 370.042L166.794 369.361ZM352.763 369.361C301.488 420.399 218.068 420.399 166.794 369.361L166.116 370.042C217.765 421.452 301.791 421.452 353.44 370.042L352.763 369.361ZM353.17 368.956L352.763 369.361L353.44 370.042L353.848 369.636L353.17 368.956ZM353.364 369.754L353.669 369.851L353.96 368.935L353.654 368.838L353.364 369.754ZM354.157 369.73L381.611 341.81L380.926 341.137L353.472 369.056L354.157 369.73ZM381.604 341.817L423.018 301.334L422.347 300.647L380.933 341.13L381.604 341.817ZM422.976 300.61L422.699 300.396L422.112 301.157L422.389 301.371L422.976 300.61ZM513.618 209.255L422.066 300.436L422.744 301.117L514.296 209.935L513.618 209.255Z" fill="#DCE8FF"/>
</g>
<rect x="238" y="287.273" width="381.223" height="76.3306" rx="38.1653" transform="rotate(-42.4567 238 287.273)" fill="#CCF3FF"/>
<rect x="170" y="186.826" width="90.9324" height="34.131" rx="17.0655" transform="rotate(-42.0361 170 186.826)" fill="#18256C"/>
<rect x="25" y="239.981" width="41.8813" height="15.7199" rx="7.85996" transform="rotate(-42.0361 25 239.981)" fill="#0048DB"/>
<rect x="83" y="113.981" width="41.8813" height="15.7199" rx="7.85996" transform="rotate(-42.0361 83 113.981)" fill="#CCF2E4"/>
</g>
<defs>
<linearGradient id="paint0_linear_3286_3881" x1="128.203" y1="-10.2419" x2="244.418" y2="544.414" gradientUnits="userSpaceOnUse">
<stop stop-color="#E0F8FF"/>
<stop offset="0.603668" stop-color="white"/>
</linearGradient>
<clipPath id="clip0_3286_3881">
<rect width="597" height="265" fill="white" transform="translate(0 0.9375)"/>
</clipPath>
</defs>
</svg>
